<?xml version="1.0" encoding="utf-8"?>
<!-- Generator: Adobe Illustrator 28.2.0, SVG Export Plug-In . SVG Version: 6.00 Build 0)  -->
<svg version="1.1" id="Layer_1" xmlns="http://www.w3.org/2000/svg" xmlns:xlink="http://www.w3.org/1999/xlink" x="0px" y="0px"
	 viewBox="0 0 150.8 46.7" style="enable-background:new 0 0 150.8 46.7;" xml:space="preserve">
<style type="text/css">
	.st0{fill:#39B24A;}
	.st1{fill:#414042;}
	.st2{fill:#FFFFFF;}
</style>
<g>
	<g>
		<polygon class="st0" points="50.8,45.4 39.5,45.4 23,24 30,18.4 		"/>
		<polygon class="st0" points="52.3,1.7 29.9,29.7 23,23.9 40.8,1.7 		"/>
	</g>
	<rect x="9" y="1.7" class="st1" width="11.6" height="11.6"/>
	<rect x="9" y="17.7" class="st1" width="11.6" height="11.6"/>
	<rect x="9" y="33.7" class="st1" width="11.6" height="11.6"/>
	<g>
		<g>
			<path class="st2" d="M11.2,11.8V4h2.2v7.7H11.2z M13.1,10L13,7.6L16.3,4h2.4l-3.3,3.6l-1.2,1.3L13.1,10z M16.3,11.8l-2.5-3.2
				L15.2,7l3.6,4.7H16.3z"/>
		</g>
	</g>
	<g>
		<g>
			<path class="st2" d="M10.9,27.6v-7.7h1.8L17,25h-0.8v-5.1h2.1v7.7h-1.8l-4.3-5.1h0.8v5.1H10.9z"/>
		</g>
	</g>
	<g>
		<g>
			<path class="st2" d="M10.3,43.6v-7.7h1.8l3.2,5.3h-0.9l3.1-5.3h1.8l0,7.7h-2l0-4.7h0.3l-2.3,3.9h-1l-2.4-3.9h0.4v4.7H10.3z"/>
		</g>
	</g>
	<g>
		<g>
			<path class="st1" d="M59.8,23.9V10.6h6.3c1.5,0,2.7,0.3,3.8,0.8c1.1,0.5,2,1.3,2.6,2.3c0.6,1,0.9,2.2,0.9,3.5
				c0,1.4-0.3,2.5-0.9,3.5c-0.6,1-1.5,1.8-2.6,2.3c-1.1,0.5-2.4,0.8-3.8,0.8H59.8z M63.6,20.9h2.3c0.8,0,1.4-0.1,2-0.4
				s1-0.7,1.3-1.3c0.3-0.5,0.5-1.2,0.5-1.9c0-0.8-0.2-1.4-0.5-2c-0.3-0.5-0.8-1-1.3-1.2c-0.6-0.3-1.2-0.4-2-0.4h-2.3V20.9z"/>
			<path class="st1" d="M78.3,20.9h6.9v2.9H74.6V10.6H85v2.9h-6.7V20.9z M78.1,15.7h6.2v2.8h-6.2V15.7z"/>
			<path class="st1" d="M91.2,24.1c-1.1,0-2.2-0.1-3.2-0.4c-1-0.3-1.8-0.6-2.4-1l1.2-2.8c0.6,0.4,1.3,0.7,2.1,0.9s1.6,0.4,2.3,0.4
				c0.5,0,1,0,1.3-0.1c0.3-0.1,0.5-0.2,0.7-0.4c0.1-0.2,0.2-0.4,0.2-0.6c0-0.3-0.1-0.5-0.4-0.7c-0.3-0.2-0.6-0.3-1.1-0.4
				c-0.4-0.1-0.9-0.2-1.5-0.3s-1.1-0.2-1.6-0.4c-0.5-0.2-1-0.4-1.5-0.7c-0.4-0.3-0.8-0.7-1.1-1.1c-0.3-0.5-0.4-1.1-0.4-1.8
				c0-0.8,0.2-1.5,0.6-2.1c0.4-0.6,1.1-1.2,2-1.6c0.9-0.4,2-0.6,3.3-0.6c0.9,0,1.7,0.1,2.6,0.3c0.8,0.2,1.6,0.5,2.2,0.9l-1.1,2.8
				c-0.6-0.4-1.3-0.6-1.9-0.8c-0.6-0.2-1.2-0.2-1.8-0.2c-0.5,0-0.9,0.1-1.3,0.2c-0.3,0.1-0.5,0.3-0.7,0.4c-0.1,0.2-0.2,0.4-0.2,0.6
				c0,0.3,0.1,0.5,0.4,0.7c0.3,0.2,0.6,0.3,1.1,0.4c0.4,0.1,0.9,0.2,1.5,0.3c0.5,0.1,1.1,0.3,1.6,0.4c0.5,0.2,1,0.4,1.5,0.7
				c0.4,0.3,0.8,0.7,1.1,1.1c0.3,0.5,0.4,1,0.4,1.7c0,0.8-0.2,1.5-0.7,2.1c-0.4,0.7-1.1,1.2-2,1.6C93.6,23.9,92.5,24.1,91.2,24.1z"
				/>
			<path class="st1" d="M98,23.9V10.6h3.8v13.3H98z"/>
			<path class="st1" d="M110.1,24.1c-1.1,0-2-0.2-2.9-0.5c-0.9-0.3-1.7-0.8-2.3-1.4s-1.2-1.3-1.5-2.2c-0.4-0.8-0.5-1.8-0.5-2.8
				s0.2-1.9,0.5-2.8c0.4-0.8,0.9-1.6,1.5-2.2c0.7-0.6,1.4-1.1,2.3-1.4s1.9-0.5,3-0.5c1.2,0,2.4,0.2,3.3,0.6s1.8,1,2.4,1.8l-2.4,2.2
				c-0.5-0.5-0.9-0.9-1.5-1.1c-0.5-0.2-1.1-0.4-1.8-0.4c-0.6,0-1.1,0.1-1.6,0.3c-0.5,0.2-0.9,0.4-1.2,0.8c-0.3,0.3-0.6,0.7-0.8,1.2
				c-0.2,0.5-0.3,1-0.3,1.6c0,0.6,0.1,1.1,0.3,1.5c0.2,0.5,0.4,0.9,0.8,1.2c0.3,0.3,0.7,0.6,1.2,0.8c0.5,0.2,1,0.3,1.5,0.3
				c0.6,0,1.1-0.1,1.6-0.3c0.5-0.2,1.1-0.5,1.6-0.9l2.1,2.6c-0.8,0.5-1.7,1-2.6,1.3C112.1,24,111.1,24.1,110.1,24.1z M112.4,22v-5
				h3.3v5.5L112.4,22z"/>
			<path class="st1" d="M117.3,23.9V10.6h3.1l7.3,8.8h-1.5v-8.8h3.7v13.3h-3.1l-7.3-8.8h1.5v8.8H117.3z"/>
			<path class="st1" d="M63.6,34.9c-0.6,0-1.2-0.1-1.8-0.3c-0.5-0.2-1-0.5-1.4-0.9c-0.4-0.4-0.7-0.8-0.9-1.4
				c-0.2-0.5-0.3-1.1-0.3-1.7c0-0.6,0.1-1.2,0.3-1.7s0.5-1,0.9-1.4c0.4-0.4,0.9-0.7,1.4-0.9c0.5-0.2,1.1-0.3,1.8-0.3
				c0.6,0,1.2,0.1,1.8,0.3c0.5,0.2,1,0.5,1.4,0.9l-0.6,0.6c-0.4-0.4-0.7-0.6-1.2-0.8c-0.4-0.2-0.9-0.2-1.4-0.2c-0.5,0-1,0.1-1.4,0.3
				s-0.8,0.4-1.2,0.7c-0.3,0.3-0.6,0.7-0.8,1.1c-0.2,0.4-0.3,0.9-0.3,1.4c0,0.5,0.1,1,0.3,1.4c0.2,0.4,0.4,0.8,0.8,1.1
				c0.3,0.3,0.7,0.6,1.2,0.7s0.9,0.3,1.4,0.3c0.5,0,0.9-0.1,1.4-0.2s0.8-0.4,1.2-0.7l0.5,0.7c-0.4,0.4-0.9,0.6-1.4,0.8
				C64.8,34.8,64.2,34.9,63.6,34.9z M65.9,33.7v-3.1h0.9v3.2L65.9,33.7z"/>
			<path class="st1" d="M68.7,34.8v-8.5h3.2c0.7,0,1.3,0.1,1.9,0.3s0.9,0.6,1.2,1c0.3,0.4,0.4,1,0.4,1.6c0,0.6-0.1,1.1-0.4,1.5
				c-0.3,0.4-0.7,0.8-1.2,1s-1.1,0.3-1.9,0.3h-2.7l0.4-0.4v3.1H68.7z M69.6,31.8l-0.4-0.4h2.7c0.8,0,1.5-0.2,1.9-0.6
				c0.4-0.4,0.7-0.9,0.7-1.6c0-0.7-0.2-1.2-0.7-1.6s-1.1-0.6-1.9-0.6h-2.7l0.4-0.4V31.8z M74.5,34.8l-2.2-3.1h1l2.2,3.1H74.5z"/>
			<path class="st1" d="M80.6,34.9c-0.6,0-1.2-0.1-1.8-0.3c-0.5-0.2-1-0.5-1.4-0.9c-0.4-0.4-0.7-0.8-0.9-1.4s-0.3-1.1-0.3-1.7
				c0-0.6,0.1-1.2,0.3-1.7s0.5-1,0.9-1.4c0.4-0.4,0.9-0.7,1.4-0.9c0.5-0.2,1.1-0.3,1.8-0.3c0.6,0,1.2,0.1,1.8,0.3
				c0.5,0.2,1,0.5,1.4,0.9c0.4,0.4,0.7,0.8,0.9,1.4c0.2,0.5,0.3,1.1,0.3,1.7c0,0.6-0.1,1.2-0.3,1.7c-0.2,0.5-0.5,1-0.9,1.4
				c-0.4,0.4-0.9,0.7-1.4,0.9C81.9,34.8,81.3,34.9,80.6,34.9z M80.6,34.1c0.5,0,1-0.1,1.4-0.3c0.4-0.2,0.8-0.4,1.1-0.7
				s0.6-0.7,0.7-1.1c0.2-0.4,0.3-0.9,0.3-1.4c0-0.5-0.1-1-0.3-1.4c-0.2-0.4-0.4-0.8-0.7-1.1s-0.7-0.6-1.1-0.7
				c-0.4-0.2-0.9-0.3-1.4-0.3c-0.5,0-1,0.1-1.4,0.3s-0.8,0.4-1.1,0.7s-0.6,0.7-0.8,1.1c-0.2,0.4-0.3,0.9-0.3,1.4
				c0,0.5,0.1,1,0.3,1.4s0.4,0.8,0.8,1.1s0.7,0.6,1.1,0.7S80.1,34.1,80.6,34.1z"/>
			<path class="st1" d="M90,34.9c-1.1,0-1.9-0.3-2.6-0.9c-0.6-0.6-0.9-1.5-0.9-2.8v-4.9h0.9v4.8c0,1,0.2,1.7,0.7,2.2
				c0.5,0.5,1.1,0.7,1.9,0.7c0.8,0,1.5-0.2,1.9-0.7c0.5-0.5,0.7-1.2,0.7-2.2v-4.8h0.9v4.9c0,1.2-0.3,2.1-0.9,2.8
				C91.9,34.6,91.1,34.9,90,34.9z"/>
			<path class="st1" d="M95.6,34.8v-8.5h3.2c0.7,0,1.3,0.1,1.9,0.3s0.9,0.6,1.2,1c0.3,0.4,0.4,1,0.4,1.6c0,0.6-0.1,1.1-0.4,1.5
				c-0.3,0.4-0.7,0.8-1.2,1s-1.1,0.4-1.9,0.4h-2.7l0.4-0.4v3.1H95.6z M96.5,31.8l-0.4-0.4h2.7c0.8,0,1.5-0.2,1.9-0.6
				s0.7-0.9,0.7-1.6c0-0.7-0.2-1.2-0.7-1.6s-1.1-0.6-1.9-0.6h-2.7l0.4-0.4V31.8z"/>
			<path class="st1" d="M106.4,34.8v-8.5h0.9V34h4.8v0.8H106.4z"/>
			<path class="st1" d="M114.6,34.8v-7.7h-3v-0.8h6.9v0.8h-3v7.7H114.6z"/>
			<path class="st1" d="M119.4,34.8v-8.5h3.5c0.9,0,1.7,0.2,2.4,0.5c0.7,0.4,1.2,0.9,1.6,1.5s0.6,1.4,0.6,2.2c0,0.8-0.2,1.6-0.6,2.2
				s-0.9,1.1-1.6,1.5c-0.7,0.4-1.5,0.5-2.4,0.5H119.4z M120.3,34h2.5c0.8,0,1.4-0.1,2-0.4s1-0.7,1.3-1.2s0.5-1.1,0.5-1.8
				c0-0.7-0.2-1.3-0.5-1.8s-0.7-0.9-1.3-1.2s-1.2-0.4-2-0.4h-2.5V34z"/>
			<path class="st1" d="M128.8,34.9c-0.2,0-0.3-0.1-0.5-0.2c-0.1-0.1-0.2-0.3-0.2-0.5c0-0.2,0.1-0.4,0.2-0.5
				c0.1-0.1,0.3-0.2,0.5-0.2s0.3,0.1,0.5,0.2c0.1,0.1,0.2,0.3,0.2,0.5c0,0.2-0.1,0.3-0.2,0.5C129.1,34.8,129,34.9,128.8,34.9z"/>
		</g>
	</g>
</g>
</svg>
