<?xml version="1.0" encoding="utf-8"?>
<!-- Generator: Adobe Illustrator 28.2.0, SVG Export Plug-In . SVG Version: 6.00 Build 0)  -->
<svg version="1.1" id="Layer_1" xmlns="http://www.w3.org/2000/svg" xmlns:xlink="http://www.w3.org/1999/xlink" x="0px" y="0px"
	 viewBox="0 0 150.8 46.7" style="enable-background:new 0 0 150.8 46.7;" xml:space="preserve">
<style type="text/css">
	.st0{fill:#39B24A;}
	.st1{fill:#414042;}
	.st2{fill:#FFFFFF;}
</style>
<g>
	<g>
		<polygon class="st0" points="51.6,46.3 39.7,46.3 22.4,23.8 29.7,17.9 		"/>
		<polygon class="st0" points="53.2,0.4 29.6,29.7 22.4,23.7 41.1,0.4 		"/>
	</g>
	<rect x="7.7" y="0.4" class="st1" width="12.2" height="12.2"/>
	<rect x="7.7" y="17.2" class="st1" width="12.2" height="12.2"/>
	<rect x="7.7" y="34" class="st1" width="12.2" height="12.2"/>
	<g>
		<g>
			<path class="st2" d="M10,10.9V2.8h2.3v8.1H10z M12,9.2l-0.1-2.6l3.5-3.7h2.5l-3.5,3.8l-1.3,1.3L12,9.2z M15.4,10.9l-2.6-3.3
				L14.3,6l3.8,4.9H15.4z"/>
		</g>
	</g>
	<g>
		<g>
			<path class="st2" d="M9.7,27.6v-8.1h1.9l4.5,5.4h-0.9v-5.4h2.2v8.1h-1.9l-4.5-5.4H12v5.4H9.7z"/>
		</g>
	</g>
	<g>
		<g>
			<path class="st2" d="M9.1,44.4v-8.1H11l3.3,5.5h-1l3.3-5.5h1.9l0,8.1h-2.1l0-4.9h0.4l-2.4,4.1h-1l-2.5-4.1h0.4v4.9H9.1z"/>
		</g>
	</g>
	<g>
		<g>
			<path class="st1" d="M60.5,16.6V2.7H62v13.9H60.5z M61.8,13.2l-0.1-1.8l8.4-8.7h1.7l-6.1,6.4L64.9,10L61.8,13.2z M70.5,16.6
				l-6-6.9l1-1.1l6.8,8H70.5z"/>
			<path class="st1" d="M73.8,16.6V2.7H75l9.6,12.1H84V2.7h1.5v13.9h-1.2L74.6,4.5h0.6v12.1H73.8z"/>
			<path class="st1" d="M89,16.6V2.7h1.2l6.4,10.9H96l6.3-10.9h1.2v13.9h-1.4V4.9h0.3l-5.8,9.9h-0.7l-5.9-9.9h0.4v11.7H89z"/>
			<path class="st1" d="M59.7,32.3V18.4h6.6c1.5,0,2.9,0.3,4,0.9c1.2,0.6,2.1,1.4,2.7,2.4s1,2.3,1,3.7c0,1.4-0.3,2.7-1,3.7
				c-0.7,1-1.6,1.8-2.7,2.4c-1.2,0.6-2.5,0.9-4,0.9H59.7z M63.6,29.2H66c0.8,0,1.5-0.2,2.1-0.5c0.6-0.3,1.1-0.7,1.4-1.3
				s0.5-1.3,0.5-2c0-0.8-0.2-1.5-0.5-2.1c-0.3-0.6-0.8-1-1.4-1.3c-0.6-0.3-1.3-0.5-2.1-0.5h-2.4V29.2z"/>
			<path class="st1" d="M79.1,29.3h7.3v3.1H75.2V18.4h10.9v3.1h-7V29.3z M78.8,23.8h6.5v2.9h-6.5V23.8z"/>
			<path class="st1" d="M92.5,32.6c-1.2,0-2.3-0.1-3.3-0.4s-1.9-0.6-2.6-1.1l1.3-2.9c0.6,0.4,1.3,0.7,2.2,1s1.6,0.4,2.4,0.4
				c0.6,0,1,0,1.3-0.1s0.6-0.2,0.7-0.4c0.2-0.2,0.2-0.4,0.2-0.6c0-0.3-0.1-0.5-0.4-0.7c-0.3-0.2-0.7-0.3-1.1-0.5
				c-0.5-0.1-1-0.2-1.5-0.4c-0.6-0.1-1.1-0.3-1.7-0.4S89,26,88.5,25.7c-0.5-0.3-0.8-0.7-1.1-1.2c-0.3-0.5-0.4-1.1-0.4-1.9
				c0-0.8,0.2-1.6,0.7-2.2c0.5-0.7,1.1-1.2,2-1.6c0.9-0.4,2.1-0.6,3.4-0.6c0.9,0,1.8,0.1,2.7,0.3c0.9,0.2,1.7,0.5,2.3,0.9l-1.2,2.9
				c-0.7-0.4-1.3-0.6-2-0.8s-1.3-0.3-1.9-0.3c-0.5,0-1,0.1-1.3,0.2c-0.3,0.1-0.6,0.3-0.7,0.5c-0.1,0.2-0.2,0.4-0.2,0.6
				c0,0.3,0.1,0.6,0.4,0.7s0.7,0.3,1.1,0.4c0.5,0.1,1,0.2,1.5,0.3c0.6,0.1,1.1,0.3,1.7,0.4c0.6,0.2,1.1,0.4,1.5,0.7
				c0.5,0.3,0.9,0.7,1.1,1.2s0.4,1.1,0.4,1.8c0,0.8-0.2,1.6-0.7,2.2C97.6,31,96.9,31.6,96,32C95.1,32.4,93.9,32.6,92.5,32.6z"/>
			<path class="st1" d="M99.7,32.3V18.4h3.9v13.9H99.7z"/>
			<path class="st1" d="M112.4,32.6c-1.1,0-2.1-0.2-3.1-0.5c-0.9-0.4-1.7-0.8-2.4-1.5s-1.2-1.4-1.6-2.3c-0.4-0.9-0.6-1.9-0.6-2.9
				c0-1.1,0.2-2,0.6-2.9c0.4-0.9,0.9-1.7,1.6-2.3s1.5-1.1,2.5-1.5c0.9-0.4,2-0.5,3.1-0.5c1.3,0,2.5,0.2,3.5,0.7
				c1,0.4,1.9,1.1,2.6,1.9l-2.5,2.3c-0.5-0.5-1-0.9-1.5-1.2c-0.6-0.3-1.2-0.4-1.8-0.4c-0.6,0-1.1,0.1-1.6,0.3
				c-0.5,0.2-0.9,0.5-1.3,0.8c-0.3,0.4-0.6,0.8-0.8,1.3c-0.2,0.5-0.3,1-0.3,1.6c0,0.6,0.1,1.1,0.3,1.6c0.2,0.5,0.5,0.9,0.8,1.3
				c0.3,0.4,0.8,0.6,1.2,0.8s1,0.3,1.6,0.3s1.2-0.1,1.7-0.3c0.6-0.2,1.1-0.5,1.7-1l2.2,2.8c-0.8,0.6-1.7,1-2.8,1.3
				C114.5,32.4,113.5,32.6,112.4,32.6z M114.8,30.3v-5.3h3.5v5.8L114.8,30.3z"/>
			<path class="st1" d="M119.9,32.3V18.4h3.2l7.7,9.3h-1.5v-9.3h3.9v13.9h-3.2l-7.7-9.3h1.5v9.3H119.9z"/>
			<path class="st1" d="M63.6,43.9c-0.7,0-1.3-0.1-1.9-0.3c-0.6-0.2-1.1-0.5-1.5-0.9s-0.7-0.9-1-1.4c-0.2-0.6-0.4-1.2-0.4-1.8
				s0.1-1.3,0.4-1.8c0.2-0.6,0.6-1,1-1.4c0.4-0.4,0.9-0.7,1.5-0.9s1.2-0.3,1.9-0.3s1.3,0.1,1.9,0.3c0.6,0.2,1,0.5,1.4,1l-0.6,0.6
				c-0.4-0.4-0.8-0.6-1.2-0.8s-0.9-0.2-1.5-0.2c-0.6,0-1.1,0.1-1.5,0.3c-0.5,0.2-0.9,0.4-1.2,0.8c-0.3,0.3-0.6,0.7-0.8,1.2
				c-0.2,0.4-0.3,0.9-0.3,1.5c0,0.5,0.1,1,0.3,1.5c0.2,0.5,0.5,0.8,0.8,1.2c0.3,0.3,0.7,0.6,1.2,0.8c0.5,0.2,1,0.3,1.5,0.3
				c0.5,0,1-0.1,1.4-0.2c0.5-0.2,0.9-0.4,1.3-0.8l0.5,0.7c-0.4,0.4-0.9,0.7-1.5,0.8C64.8,43.8,64.2,43.9,63.6,43.9z M66,42.6v-3.3
				h0.9v3.4L66,42.6z"/>
			<path class="st1" d="M69,43.8v-8.9h3.3c0.8,0,1.4,0.1,1.9,0.4c0.5,0.2,1,0.6,1.3,1c0.3,0.5,0.4,1,0.4,1.6c0,0.6-0.1,1.2-0.4,1.6
				c-0.3,0.5-0.7,0.8-1.3,1C73.7,40.9,73,41,72.3,41h-2.8l0.4-0.4v3.3H69z M69.9,40.6l-0.4-0.4h2.8c0.9,0,1.6-0.2,2-0.6
				c0.5-0.4,0.7-0.9,0.7-1.6c0-0.7-0.2-1.3-0.7-1.7s-1.1-0.6-2-0.6h-2.8l0.4-0.4V40.6z M75,43.8l-2.3-3.2h1l2.3,3.2H75z"/>
			<path class="st1" d="M81.5,43.9c-0.7,0-1.3-0.1-1.9-0.3c-0.6-0.2-1.1-0.5-1.5-1s-0.7-0.9-1-1.4c-0.2-0.5-0.3-1.1-0.3-1.8
				s0.1-1.3,0.3-1.8c0.2-0.5,0.6-1,1-1.4s0.9-0.7,1.5-1s1.2-0.3,1.9-0.3c0.7,0,1.3,0.1,1.9,0.3s1.1,0.5,1.5,0.9
				c0.4,0.4,0.7,0.9,1,1.4c0.2,0.6,0.3,1.2,0.3,1.8s-0.1,1.3-0.3,1.8c-0.2,0.6-0.6,1-1,1.4s-0.9,0.7-1.5,0.9S82.1,43.9,81.5,43.9z
				 M81.5,43c0.5,0,1-0.1,1.5-0.3s0.8-0.4,1.2-0.8c0.3-0.3,0.6-0.7,0.8-1.2s0.3-0.9,0.3-1.5s-0.1-1-0.3-1.5s-0.4-0.8-0.8-1.2
				c-0.3-0.3-0.7-0.6-1.2-0.8c-0.5-0.2-0.9-0.3-1.5-0.3s-1,0.1-1.5,0.3c-0.5,0.2-0.9,0.4-1.2,0.8c-0.3,0.3-0.6,0.7-0.8,1.2
				s-0.3,0.9-0.3,1.5c0,0.5,0.1,1,0.3,1.5c0.2,0.5,0.5,0.8,0.8,1.2c0.3,0.3,0.7,0.6,1.2,0.8S80.9,43,81.5,43z"/>
			<path class="st1" d="M91.3,43.9c-1.1,0-2-0.3-2.7-1s-1-1.6-1-2.9v-5.1h0.9V40c0,1.1,0.2,1.8,0.7,2.3c0.5,0.5,1.1,0.8,2,0.8
				c0.9,0,1.5-0.2,2-0.8C93.8,41.8,94,41,94,40v-5.1h0.9V40c0,1.3-0.3,2.2-1,2.9C93.3,43.6,92.4,43.9,91.3,43.9z"/>
			<path class="st1" d="M97.2,43.8v-8.9h3.3c0.8,0,1.4,0.1,1.9,0.4s1,0.6,1.3,1c0.3,0.5,0.4,1,0.4,1.6c0,0.6-0.1,1.2-0.4,1.6
				c-0.3,0.5-0.7,0.8-1.3,1s-1.2,0.4-1.9,0.4h-2.8l0.4-0.4v3.3H97.2z M98.1,40.6l-0.4-0.5h2.8c0.9,0,1.6-0.2,2-0.6
				c0.5-0.4,0.7-0.9,0.7-1.6c0-0.7-0.2-1.3-0.7-1.7c-0.5-0.4-1.1-0.6-2-0.6h-2.8l0.4-0.4V40.6z"/>
			<path class="st1" d="M108.5,43.8v-8.9h0.9V43h5v0.8H108.5z"/>
			<path class="st1" d="M117.2,43.8v-8.1H114v-0.8h7.2v0.8h-3.1v8.1H117.2z"/>
			<path class="st1" d="M122.2,43.8v-8.9h3.6c0.9,0,1.8,0.2,2.5,0.6c0.7,0.4,1.3,0.9,1.7,1.6s0.6,1.4,0.6,2.3s-0.2,1.6-0.6,2.3
				s-1,1.2-1.7,1.6c-0.7,0.4-1.6,0.6-2.5,0.6H122.2z M123.1,43h2.6c0.8,0,1.5-0.2,2.1-0.5c0.6-0.3,1-0.7,1.4-1.3
				c0.3-0.5,0.5-1.2,0.5-1.9c0-0.7-0.2-1.4-0.5-1.9s-0.8-1-1.4-1.3c-0.6-0.3-1.3-0.5-2.1-0.5h-2.6V43z"/>
			<path class="st1" d="M132,43.9c-0.2,0-0.3-0.1-0.5-0.2c-0.1-0.1-0.2-0.3-0.2-0.5c0-0.2,0.1-0.4,0.2-0.5c0.1-0.1,0.3-0.2,0.5-0.2
				s0.3,0.1,0.5,0.2c0.1,0.1,0.2,0.3,0.2,0.5c0,0.2-0.1,0.4-0.2,0.5C132.3,43.8,132.2,43.9,132,43.9z"/>
		</g>
	</g>
</g>
</svg>
