<?xml version="1.0" encoding="utf-8"?>
<!-- Generator: Adobe Illustrator 28.2.0, SVG Export Plug-In . SVG Version: 6.00 Build 0)  -->
<svg version="1.1" id="Layer_2_00000041280510272141170210000014625757632707235772_"
	 xmlns="http://www.w3.org/2000/svg" xmlns:xlink="http://www.w3.org/1999/xlink" x="0px" y="0px" viewBox="0 0 2235.6 839.9"
	 style="enable-background:new 0 0 2235.6 839.9;" xml:space="preserve">
<style type="text/css">
	.st0{fill:#39B24A;}
	.st1{fill:#FFFFFF;}
	.st2{fill:#414042;}
</style>
<g>
	<g>
		<polygon class="st0" points="528.5,681.9 400.1,681.9 212.7,438.8 292.2,375.4 		"/>
		<polygon class="st0" points="546,186.1 291.3,503.1 213,438.2 415.5,186.1 		"/>
	</g>
	<rect x="53.9" y="186.4" class="st1" width="132.1" height="132.1"/>
	<rect x="53.9" y="368" class="st1" width="132.1" height="132.1"/>
	<rect x="53.9" y="549.6" class="st1" width="132.1" height="132.1"/>
	<g>
		<g>
			<path class="st2" d="M78.8,300v-87.6h24.4V300H78.8z M100.8,280.6l-1.4-27.8l37.7-40.4h27.2L127,253.1l-13.9,14.4L100.8,280.6z
				 M137.5,300L109,263.8l16.2-17.3l41.2,53.5H137.5z"/>
		</g>
	</g>
	<g>
		<g>
			<path class="st2" d="M76.2,479.7v-87.6h20.4l48.2,58.3h-9.6v-58.3h24.3v87.6h-20.4l-48.3-58.3h9.6v58.3H76.2z"/>
		</g>
	</g>
	<g>
		<g>
			<path class="st2" d="M69,661.5v-87.6h20.4l36.2,59.6h-10.8l35.4-59.6h20.4l0.1,87.6H148l-0.3-53h3.9l-26.4,44.3h-11L87,608.6h4.8
				v53H69z"/>
		</g>
	</g>
	<g>
		<g>
			<path class="st1" d="M625.2,361.4V210.8h15.9v150.6H625.2z M638.9,324l-0.6-19.4l91.2-93.8h18.3l-66.5,69.7l-9,9.7L638.9,324z
				 M733.4,361.4l-65-74.9l10.8-11.6l73.2,86.5H733.4z"/>
			<path class="st1" d="M768.5,361.4V210.8h13.1l103.9,130.8h-6.9V210.8h15.7v150.6h-13.1L777.5,230.6h6.9v130.8H768.5z"/>
			<path class="st1" d="M933.7,361.4V210.8h13.1l68.9,117.5h-6.9l68.2-117.5h13.1v150.6h-15.3V234.7h3.7l-62.8,107.6h-7.5
				l-63.3-107.6h4.1v126.7H933.7z"/>
			<path class="st1" d="M615.9,531.1V380.5h71.2c16.5,0,31.1,3.1,43.7,9.3c12.6,6.2,22.5,14.8,29.6,26c7.1,11.2,10.7,24.5,10.7,39.8
				c0,15.5-3.6,28.9-10.7,40.1c-7.1,11.3-17,20-29.6,26.1c-12.6,6.2-27.2,9.3-43.7,9.3H615.9z M658.5,497.1H685
				c8.7,0,16.3-1.6,22.7-4.9c6.4-3.3,11.4-8.1,15-14.3c3.6-6.2,5.4-13.6,5.4-22.1c0-8.7-1.8-16.2-5.4-22.3
				c-3.6-6.1-8.6-10.8-15-14.1c-6.4-3.3-14-4.9-22.7-4.9h-26.5V497.1z"/>
			<path class="st1" d="M825.9,498h78.8v33.1H784V380.5h117.9v33.1h-76V498z M822.9,438.8h69.9v31.6h-69.9V438.8z"/>
			<path class="st1" d="M971.6,534.1c-12.5,0-24.4-1.5-35.8-4.6c-11.4-3.1-20.6-7-27.6-11.7l14-31.6c6.7,4.3,14.5,7.9,23.3,10.7
				s17.6,4.2,26.4,4.2c6,0,10.8-0.5,14.3-1.5c3.5-1,6.1-2.4,7.7-4.3c1.6-1.9,2.5-4.1,2.5-6.7c0-3.3-1.6-5.9-4.7-7.9
				c-3.2-1.9-7.3-3.6-12.4-4.9c-5.1-1.4-10.6-2.7-16.6-3.9c-6-1.2-12-2.8-18.2-4.8c-6.2-2-11.8-4.7-16.8-8c-5-3.3-9.1-7.6-12.2-12.9
				c-3.1-5.3-4.6-12-4.6-20c0-8.9,2.4-17,7.3-24.3c4.9-7.3,12.3-13.2,22.2-17.6c9.9-4.4,22.2-6.7,37-6.7c9.9,0,19.6,1.1,29.2,3.3
				c9.5,2.2,18,5.6,25.3,10l-12.9,31.4c-7.2-4-14.3-7-21.3-8.8c-7-1.9-13.8-2.8-20.4-2.8c-5.9,0-10.6,0.6-14.2,1.9
				c-3.6,1.3-6.2,2.9-7.7,4.9c-1.6,2-2.4,4.2-2.4,6.5c0,3.4,1.6,6.1,4.7,8.1c3.2,1.9,7.2,3.5,12.3,4.7c5,1.2,10.6,2.5,16.7,3.8
				c6.1,1.3,12.2,2.9,18.2,4.8c6,1.9,11.6,4.5,16.7,7.7c5.1,3.2,9.2,7.5,12.4,12.7c3.2,5.2,4.7,11.8,4.7,19.7
				c0,8.8-2.5,16.8-7.4,24.2c-4.9,7.4-12.4,13.3-22.3,17.8C998.9,531.9,986.5,534.1,971.6,534.1z"/>
			<path class="st1" d="M1048.4,531.1V380.5h42.6v150.6H1048.4z"/>
			<path class="st1" d="M1186.8,534.1c-12,0-23.1-1.9-33.1-5.7c-10-3.8-18.8-9.2-26.3-16.1c-7.5-7-13.3-15.2-17.4-24.9
				c-4.2-9.6-6.2-20.2-6.2-31.6c0-11.5,2.1-22,6.2-31.6c4.2-9.6,10-17.9,17.5-24.9c7.5-7,16.4-12.3,26.6-16.1
				c10.2-3.8,21.4-5.7,33.8-5.7c14.1,0,26.7,2.4,37.9,7.1c11.2,4.7,20.4,11.5,27.8,20.4l-27.1,24.5c-5.2-5.7-10.7-10-16.7-12.7
				c-6-2.7-12.6-4.1-19.9-4.1c-6.5,0-12.3,1-17.6,3c-5.3,2-9.8,4.9-13.6,8.7c-3.7,3.8-6.6,8.4-8.7,13.7c-2.1,5.3-3.1,11.2-3.1,17.6
				c0,6.3,1,12.1,3.1,17.4c2.1,5.3,5,9.9,8.7,13.7c3.7,3.8,8.2,6.7,13.4,8.8c5.2,2.1,11,3.1,17.3,3.1c6.3,0,12.5-1,18.5-3.1
				c6-2.1,12.1-5.6,18.3-10.7L1250,515c-8.8,6.2-18.8,10.9-30,14.2C1208.7,532.5,1197.7,534.1,1186.8,534.1z M1212.1,509.6v-57h37.9
				V515L1212.1,509.6z"/>
			<path class="st1" d="M1267.7,531.1V380.5h35.1l82.8,100.3H1369V380.5h41.7v150.6h-35.1l-83.1-100.3h16.6v100.3H1267.7z"/>
			<path class="st1" d="M658.6,656.2c-7.3,0-14.1-1.2-20.3-3.6c-6.2-2.4-11.6-5.8-16.1-10.3c-4.5-4.4-8.1-9.6-10.6-15.5
				c-2.5-6-3.8-12.5-3.8-19.5c0-7.1,1.3-13.6,3.8-19.5c2.5-6,6.1-11.1,10.7-15.5c4.6-4.4,10-7.8,16.2-10.3c6.2-2.4,13-3.6,20.3-3.6
				c7.3,0,14.1,1.1,20.2,3.4c6.1,2.3,11.3,5.8,15.6,10.5l-6.3,6.5c-4-4-8.5-6.9-13.3-8.7c-4.9-1.7-10.1-2.6-15.7-2.6
				c-6,0-11.4,1-16.4,3c-5,2-9.4,4.8-13.1,8.4c-3.7,3.6-6.6,7.8-8.7,12.7c-2.1,4.8-3.1,10.1-3.1,15.9c0,5.7,1,11,3.1,15.8
				c2.1,4.9,5,9.1,8.7,12.7c3.7,3.6,8.1,6.4,13.1,8.4c5,2,10.4,3,16.3,3c5.5,0,10.7-0.8,15.6-2.5c4.9-1.7,9.4-4.4,13.6-8.4l5.8,7.7
				c-4.6,4-10,7.1-16.1,9.1C671.7,655.2,665.2,656.2,658.6,656.2z M684.1,642.7v-35.5h9.8V644L684.1,642.7z"/>
			<path class="st1" d="M716.5,655.4v-96.3h36c8.2,0,15.2,1.3,21.1,3.9c5.9,2.6,10.4,6.4,13.6,11.3c3.2,4.9,4.7,10.8,4.7,17.8
				c0,6.8-1.6,12.6-4.7,17.5c-3.2,4.9-7.7,8.7-13.6,11.3c-5.9,2.6-12.9,3.9-21.1,3.9h-30.4l4.5-4.7v35.2H716.5z M726.7,621l-4.5-4.8
				h30.1c9.6,0,16.9-2.1,21.9-6.3c5-4.2,7.5-10.1,7.5-17.8c0-7.7-2.5-13.7-7.5-17.9c-5-4.2-12.3-6.3-21.9-6.3h-30.1l4.5-4.8V621z
				 M782.2,655.4l-24.8-34.9h11l24.9,34.9H782.2z"/>
			<path class="st1" d="M851.9,656.2c-7.2,0-14-1.2-20.2-3.6c-6.2-2.4-11.6-5.9-16.1-10.3c-4.5-4.4-8.1-9.6-10.6-15.5
				c-2.5-5.9-3.8-12.4-3.8-19.5c0-7.1,1.3-13.6,3.8-19.5c2.5-5.9,6.1-11.1,10.6-15.5c4.5-4.4,9.9-7.9,16-10.3
				c6.1-2.4,12.9-3.6,20.2-3.6c7.2,0,13.9,1.2,20.1,3.6c6.1,2.4,11.5,5.8,16,10.3c4.5,4.4,8.1,9.6,10.6,15.5
				c2.5,6,3.8,12.5,3.8,19.5c0,7.1-1.3,13.6-3.8,19.5c-2.5,6-6.1,11.1-10.6,15.5c-4.5,4.4-9.9,7.8-16,10.3
				C865.8,655,859.1,656.2,851.9,656.2z M851.9,647.1c5.8,0,11.1-1,16-3c4.9-2,9.2-4.8,12.8-8.4c3.6-3.6,6.4-7.8,8.5-12.7
				c2-4.8,3-10.1,3-15.9c0-5.8-1-11.1-3-15.9c-2-4.8-4.8-9-8.5-12.7c-3.6-3.6-7.9-6.4-12.8-8.4c-4.9-2-10.3-3-16-3s-11.1,1-16.1,3
				c-5,2-9.3,4.8-12.9,8.4c-3.7,3.6-6.5,7.8-8.5,12.7c-2,4.8-3,10.1-3,15.9c0,5.7,1,11,3,15.8c2,4.9,4.9,9.1,8.5,12.7
				c3.7,3.6,8,6.4,12.9,8.4C840.7,646.1,846.1,647.1,851.9,647.1z"/>
			<path class="st1" d="M957.8,656.2c-12.3,0-22-3.5-29-10.6c-7.1-7.1-10.6-17.5-10.6-31.4v-55.2h10.2v54.8
				c0,11.4,2.6,19.8,7.7,25.2c5.1,5.4,12.4,8.1,21.7,8.1c9.4,0,16.7-2.7,21.9-8.1c5.1-5.4,7.7-13.8,7.7-25.2v-54.8h9.9v55.2
				c0,13.9-3.5,24.3-10.5,31.4C979.8,652.7,970.1,656.2,957.8,656.2z"/>
			<path class="st1" d="M1021.8,655.4v-96.3h36c8.2,0,15.2,1.3,21.1,3.9c5.9,2.6,10.4,6.4,13.6,11.3c3.2,4.9,4.7,10.8,4.7,17.8
				c0,6.8-1.6,12.6-4.7,17.5c-3.2,4.9-7.7,8.7-13.6,11.4c-5.9,2.7-12.9,4-21.1,4h-30.4l4.5-4.8v35.2H1021.8z M1032,621l-4.5-5h30.1
				c9.6,0,16.9-2.1,21.9-6.3c5-4.2,7.5-10.1,7.5-17.7c0-7.7-2.5-13.7-7.5-17.9c-5-4.2-12.3-6.3-21.9-6.3h-30.1l4.5-4.8V621z"/>
			<path class="st1" d="M1144.2,655.4v-96.3h10.2v87.5h53.9v8.8H1144.2z"/>
			<path class="st1" d="M1237.8,655.4v-87.5H1204v-8.8h77.9v8.8H1248v87.5H1237.8z"/>
			<path class="st1" d="M1291.9,655.4v-96.3h39.2c10.3,0,19.3,2,27,6.1c7.8,4.1,13.8,9.7,18.1,17c4.3,7.2,6.5,15.6,6.5,25
				c0,9.4-2.2,17.8-6.5,25c-4.3,7.2-10.3,12.9-18.1,17c-7.8,4.1-16.8,6.1-27,6.1H1291.9z M1302.1,646.6h28.5c8.5,0,15.9-1.7,22.2-5
				c6.3-3.3,11.2-8,14.7-13.9c3.5-5.9,5.2-12.7,5.2-20.4c0-7.8-1.7-14.6-5.2-20.5c-3.5-5.9-8.4-10.5-14.7-13.8
				c-6.3-3.3-13.7-5-22.2-5h-28.5V646.6z"/>
			<path class="st1" d="M1398.2,656.1c-2,0-3.7-0.7-5.2-2.2c-1.4-1.5-2.1-3.3-2.1-5.4c0-2.2,0.7-4,2.1-5.4c1.4-1.4,3.1-2.1,5.2-2.1
				c2,0,3.7,0.7,5.2,2.1c1.4,1.4,2.1,3.2,2.1,5.4c0,2.1-0.7,3.9-2.1,5.4C1402,655.3,1400.2,656.1,1398.2,656.1z"/>
		</g>
	</g>
</g>
</svg>
