<?xml version="1.0" encoding="utf-8"?>
<!-- Generator: Adobe Illustrator 28.2.0, SVG Export Plug-In . SVG Version: 6.00 Build 0)  -->
<svg version="1.1" id="Layer_2_00000041280510272141170210000014625757632707235772_"
	 xmlns="http://www.w3.org/2000/svg" xmlns:xlink="http://www.w3.org/1999/xlink" x="0px" y="0px" viewBox="0 0 1493.8 839.9"
	 style="enable-background:new 0 0 1493.8 839.9;" xml:space="preserve">
<style type="text/css">
	.st0{fill:#39B24A;}
	.st1{fill:#FFFFFF;}
	.st2{fill:#414042;}
</style>
<g>
	<g>
		<polygon class="st0" points="523,682 394.6,682 207.1,438.9 286.7,375.6 		"/>
		<polygon class="st0" points="540.5,186.2 285.8,503.2 207.5,438.3 410,186.2 		"/>
	</g>
	<rect x="48.4" y="186.5" class="st1" width="132.1" height="132.1"/>
	<rect x="48.4" y="368.1" class="st1" width="132.1" height="132.1"/>
	<rect x="48.4" y="549.7" class="st1" width="132.1" height="132.1"/>
	<g>
		<g>
			<path class="st2" d="M73.2,300.1v-87.6h24.4v87.6H73.2z M95.3,280.7l-1.4-27.8l37.7-40.4h27.2l-37.3,40.7l-13.9,14.4L95.3,280.7z
				 M132,300.1l-28.5-36.2l16.2-17.3l41.2,53.5H132z"/>
		</g>
	</g>
	<g>
		<g>
			<path class="st2" d="M70.7,479.9v-87.6h20.4l48.2,58.3h-9.6v-58.3h24.3v87.6h-20.4l-48.3-58.3h9.6v58.3H70.7z"/>
		</g>
	</g>
	<g>
		<g>
			<path class="st2" d="M63.4,661.6V574h20.4l36.2,59.6h-10.8l35.4-59.6h20.4l0.1,87.6h-22.8l-0.3-53h3.9L119.6,653h-11l-27.2-44.3
				h4.8v53H63.4z"/>
		</g>
	</g>
	<g>
		<g>
			<path class="st1" d="M619.6,361.5V210.9h15.9v150.6H619.6z M633.4,324.1l-0.6-19.4l91.2-93.8h18.3l-66.5,69.7l-9,9.7L633.4,324.1
				z M727.8,361.5l-65-74.9l10.8-11.6l73.2,86.5H727.8z"/>
			<path class="st1" d="M762.9,361.5V210.9H776L880,341.8h-6.9V210.9h15.7v150.6h-13.1L772,230.7h6.9v130.8H762.9z"/>
			<path class="st1" d="M928.2,361.5V210.9h13.1l68.9,117.5h-6.9l68.2-117.5h13.1v150.6h-15.3V234.8h3.7l-62.8,107.6h-7.5
				l-63.3-107.6h4.1v126.7H928.2z"/>
			<path class="st1" d="M610.4,531.3V380.6h71.2c16.5,0,31.1,3.1,43.7,9.3c12.6,6.2,22.5,14.8,29.6,26c7.1,11.2,10.7,24.5,10.7,39.8
				c0,15.5-3.6,28.9-10.7,40.1c-7.1,11.3-17,20-29.6,26.1c-12.6,6.2-27.2,9.3-43.7,9.3H610.4z M653,497.3h26.5
				c8.7,0,16.3-1.6,22.7-4.9c6.4-3.3,11.4-8.1,15-14.3c3.6-6.2,5.4-13.6,5.4-22.1c0-8.7-1.8-16.2-5.4-22.3
				c-3.6-6.1-8.6-10.8-15-14.1c-6.4-3.3-14-4.9-22.7-4.9H653V497.3z"/>
			<path class="st1" d="M820.4,498.1h78.8v33.1H778.4V380.6h117.9v33.1h-76V498.1z M817.3,439h69.9v31.6h-69.9V439z"/>
			<path class="st1" d="M966,534.3c-12.5,0-24.4-1.5-35.8-4.6c-11.4-3.1-20.6-7-27.7-11.7l14-31.6c6.7,4.3,14.5,7.9,23.3,10.7
				s17.6,4.2,26.4,4.2c6,0,10.8-0.5,14.3-1.5c3.5-1,6.1-2.4,7.7-4.3c1.6-1.9,2.5-4.1,2.5-6.7c0-3.3-1.6-5.9-4.7-7.9
				c-3.2-1.9-7.3-3.6-12.4-4.9c-5.1-1.4-10.6-2.7-16.6-3.9c-6-1.2-12-2.8-18.2-4.8c-6.2-2-11.8-4.7-16.8-8c-5-3.3-9.1-7.6-12.2-12.9
				c-3.1-5.3-4.6-12-4.6-20c0-8.9,2.4-17,7.3-24.3c4.9-7.3,12.3-13.2,22.2-17.6c9.9-4.4,22.2-6.7,37-6.7c9.9,0,19.6,1.1,29.2,3.3
				c9.5,2.2,18,5.6,25.3,10l-12.9,31.4c-7.2-4-14.3-7-21.3-8.8c-7-1.9-13.8-2.8-20.4-2.8c-5.9,0-10.6,0.6-14.2,1.9
				c-3.6,1.3-6.2,2.9-7.7,4.9c-1.6,2-2.4,4.2-2.4,6.5c0,3.4,1.6,6.1,4.7,8.1c3.2,1.9,7.2,3.5,12.3,4.7c5,1.2,10.6,2.5,16.7,3.8
				c6.1,1.3,12.2,2.9,18.2,4.8c6,1.9,11.6,4.5,16.7,7.7c5.1,3.2,9.2,7.5,12.4,12.7c3.2,5.2,4.7,11.8,4.7,19.7
				c0,8.8-2.5,16.8-7.4,24.2c-4.9,7.4-12.4,13.3-22.3,17.8C993.4,532,981,534.3,966,534.3z"/>
			<path class="st1" d="M1042.8,531.3V380.6h42.6v150.6H1042.8z"/>
			<path class="st1" d="M1181.2,534.3c-12,0-23.1-1.9-33.1-5.7c-10-3.8-18.8-9.2-26.3-16.1c-7.5-7-13.3-15.2-17.4-24.9
				c-4.2-9.6-6.2-20.2-6.2-31.6c0-11.5,2.1-22,6.2-31.6c4.2-9.6,10-17.9,17.5-24.9c7.5-7,16.4-12.3,26.6-16.1
				c10.2-3.8,21.4-5.7,33.8-5.7c14.1,0,26.7,2.4,37.9,7.1c11.2,4.7,20.4,11.5,27.8,20.4l-27.1,24.5c-5.2-5.7-10.7-10-16.7-12.7
				c-6-2.7-12.6-4.1-19.9-4.1c-6.5,0-12.3,1-17.6,3c-5.3,2-9.8,4.9-13.6,8.7c-3.7,3.8-6.6,8.4-8.7,13.7c-2.1,5.3-3.1,11.2-3.1,17.6
				c0,6.3,1,12.1,3.1,17.4c2.1,5.3,5,9.9,8.7,13.7c3.7,3.8,8.2,6.7,13.4,8.8c5.2,2.1,11,3.1,17.3,3.1c6.3,0,12.5-1,18.5-3.1
				c6-2.1,12.1-5.6,18.3-10.7l23.9,29.9c-8.8,6.2-18.8,10.9-30,14.2C1203.2,532.6,1192.1,534.3,1181.2,534.3z M1206.6,509.7v-57
				h37.9v62.4L1206.6,509.7z"/>
			<path class="st1" d="M1262.1,531.3V380.6h35.1l82.8,100.3h-16.6V380.6h41.7v150.6h-35.1L1287.1,431h16.6v100.3H1262.1z"/>
			<path class="st1" d="M653,656.3c-7.3,0-14.1-1.2-20.3-3.6c-6.2-2.4-11.6-5.8-16.1-10.3c-4.5-4.4-8.1-9.6-10.6-15.5
				c-2.5-6-3.8-12.5-3.8-19.5c0-7.1,1.3-13.6,3.8-19.5c2.5-6,6.1-11.1,10.7-15.5c4.6-4.4,10-7.8,16.2-10.3c6.2-2.4,13-3.6,20.3-3.6
				c7.3,0,14.1,1.1,20.2,3.4c6.1,2.3,11.3,5.8,15.6,10.5l-6.3,6.5c-4-4-8.5-6.9-13.3-8.7c-4.9-1.7-10.1-2.6-15.7-2.6
				c-6,0-11.4,1-16.4,3c-5,2-9.4,4.8-13.1,8.4c-3.7,3.6-6.6,7.8-8.7,12.7c-2.1,4.8-3.1,10.1-3.1,15.9c0,5.7,1,11,3.1,15.8
				c2.1,4.9,5,9.1,8.7,12.7c3.7,3.6,8.1,6.4,13.1,8.4c5,2,10.4,3,16.3,3c5.5,0,10.7-0.8,15.6-2.5c4.9-1.7,9.4-4.4,13.6-8.4l5.8,7.7
				c-4.6,4-10,7.1-16.1,9.1C666.1,655.3,659.7,656.3,653,656.3z M678.6,642.9v-35.5h9.8v36.7L678.6,642.9z"/>
			<path class="st1" d="M710.9,655.5v-96.3h36c8.2,0,15.2,1.3,21.1,3.9c5.9,2.6,10.4,6.4,13.6,11.3c3.2,4.9,4.7,10.8,4.7,17.8
				c0,6.8-1.6,12.6-4.7,17.5c-3.2,4.9-7.7,8.7-13.6,11.3c-5.9,2.6-12.9,3.9-21.1,3.9h-30.4l4.5-4.7v35.2H710.9z M721.1,621.1
				l-4.5-4.8h30.1c9.6,0,16.9-2.1,21.9-6.3c5-4.2,7.5-10.1,7.5-17.8c0-7.7-2.5-13.7-7.5-17.9c-5-4.2-12.3-6.3-21.9-6.3h-30.1
				l4.5-4.8V621.1z M776.7,655.5l-24.8-34.9h11l24.9,34.9H776.7z"/>
			<path class="st1" d="M846.3,656.3c-7.2,0-14-1.2-20.2-3.6c-6.2-2.4-11.6-5.9-16.1-10.3c-4.5-4.4-8.1-9.6-10.6-15.5
				c-2.5-5.9-3.8-12.4-3.8-19.5c0-7.1,1.3-13.6,3.8-19.5c2.5-5.9,6.1-11.1,10.6-15.5c4.5-4.4,9.9-7.9,16-10.3
				c6.1-2.4,12.9-3.6,20.2-3.6c7.2,0,13.9,1.2,20.1,3.6c6.1,2.4,11.5,5.8,16,10.3c4.5,4.4,8.1,9.6,10.6,15.5
				c2.5,6,3.8,12.5,3.8,19.5c0,7.1-1.3,13.6-3.8,19.5c-2.5,6-6.1,11.1-10.6,15.5c-4.5,4.4-9.9,7.8-16,10.3
				C860.3,655.1,853.6,656.3,846.3,656.3z M846.3,647.3c5.8,0,11.1-1,16-3c4.9-2,9.2-4.8,12.8-8.4c3.6-3.6,6.4-7.8,8.5-12.7
				c2-4.8,3-10.1,3-15.9c0-5.8-1-11.1-3-15.9c-2-4.8-4.8-9-8.5-12.7c-3.6-3.6-7.9-6.4-12.8-8.4c-4.9-2-10.3-3-16-3
				c-5.8,0-11.1,1-16.1,3c-5,2-9.3,4.8-12.9,8.4c-3.7,3.6-6.5,7.8-8.5,12.7c-2,4.8-3,10.1-3,15.9c0,5.7,1,11,3,15.8
				c2,4.9,4.9,9.1,8.5,12.7c3.7,3.6,8,6.4,12.9,8.4C835.2,646.3,840.5,647.3,846.3,647.3z"/>
			<path class="st1" d="M952.3,656.3c-12.3,0-22-3.5-29-10.6c-7.1-7.1-10.6-17.5-10.6-31.4v-55.2h10.2V614c0,11.4,2.6,19.8,7.7,25.2
				c5.1,5.4,12.4,8.1,21.7,8.1c9.4,0,16.7-2.7,21.9-8.1c5.1-5.4,7.7-13.8,7.7-25.2v-54.8h9.9v55.2c0,13.9-3.5,24.3-10.5,31.4
				C974.2,652.8,964.5,656.3,952.3,656.3z"/>
			<path class="st1" d="M1016.2,655.5v-96.3h36c8.2,0,15.2,1.3,21.1,3.9c5.9,2.6,10.4,6.4,13.6,11.3c3.2,4.9,4.7,10.8,4.7,17.8
				c0,6.8-1.6,12.6-4.7,17.5c-3.2,4.9-7.7,8.7-13.6,11.4c-5.9,2.7-12.9,4-21.1,4h-30.4l4.5-4.8v35.2H1016.2z M1026.4,621.1l-4.5-5
				h30.1c9.6,0,16.9-2.1,21.9-6.3c5-4.2,7.5-10.1,7.5-17.7c0-7.7-2.5-13.7-7.5-17.9c-5-4.2-12.3-6.3-21.9-6.3h-30.1l4.5-4.8V621.1z"
				/>
			<path class="st1" d="M1138.7,655.5v-96.3h10.2v87.5h53.9v8.8H1138.7z"/>
			<path class="st1" d="M1232.2,655.5V568h-33.8v-8.8h77.9v8.8h-33.8v87.5H1232.2z"/>
			<path class="st1" d="M1286.3,655.5v-96.3h39.2c10.3,0,19.3,2,27,6.1c7.8,4.1,13.8,9.7,18.1,17c4.3,7.2,6.5,15.6,6.5,25
				c0,9.4-2.2,17.8-6.5,25c-4.3,7.2-10.3,12.9-18.1,17c-7.8,4.1-16.8,6.1-27,6.1H1286.3z M1296.5,646.7h28.5c8.5,0,15.9-1.7,22.2-5
				c6.3-3.3,11.2-8,14.7-13.9c3.5-5.9,5.2-12.7,5.2-20.4c0-7.8-1.7-14.6-5.2-20.5c-3.5-5.9-8.4-10.5-14.7-13.8
				c-6.3-3.3-13.7-5-22.2-5h-28.5V646.7z"/>
			<path class="st1" d="M1392.7,656.2c-2,0-3.7-0.7-5.2-2.2c-1.4-1.5-2.1-3.3-2.1-5.4c0-2.2,0.7-4,2.1-5.4c1.4-1.4,3.1-2.1,5.2-2.1
				c2,0,3.7,0.7,5.2,2.1c1.4,1.4,2.1,3.2,2.1,5.4c0,2.1-0.7,3.9-2.1,5.4C1396.4,655.5,1394.7,656.2,1392.7,656.2z"/>
		</g>
	</g>
</g>
</svg>
