<?xml version="1.0" encoding="utf-8"?>
<!-- Generator: Adobe Illustrator 28.2.0, SVG Export Plug-In . SVG Version: 6.00 Build 0)  -->
<svg version="1.1" id="Layer_2_00000041280510272141170210000014625757632707235772_"
	 xmlns="http://www.w3.org/2000/svg" xmlns:xlink="http://www.w3.org/1999/xlink" x="0px" y="0px" viewBox="0 0 2235.6 839.9"
	 style="enable-background:new 0 0 2235.6 839.9;" xml:space="preserve">
<style type="text/css">
	.st0{fill:#39B24A;}
	.st1{fill:#FFFFFF;}
	.st2{fill:#1F0500;}
</style>
<g>
	<g>
		<polygon class="st0" points="1324.7,516.3 1205.4,516.3 1031.3,290.4 1105.2,231.5 		"/>
		<polygon class="st0" points="1341,55.6 1104.4,350.2 1031.6,289.8 1219.8,55.6 		"/>
	</g>
	<rect x="883.7" y="55.9" class="st1" width="122.8" height="122.8"/>
	<rect x="883.7" y="224.6" class="st1" width="122.8" height="122.8"/>
	<rect x="883.7" y="393.3" class="st1" width="122.8" height="122.8"/>
	<g>
		<g>
			<path class="st2" d="M906.9,161.4V80h22.7v81.4H906.9z M927.3,143.4l-1.3-25.8l35-37.6h25.2l-34.7,37.8l-12.9,13.4L927.3,143.4z
				 M961.4,161.4l-26.5-33.6l15-16.1l38.3,49.7H961.4z"/>
		</g>
	</g>
	<g>
		<g>
			<path class="st2" d="M904.4,328.5V247h19l44.8,54.2h-9V247h22.6v81.4h-19l-44.9-54.2h9v54.2H904.4z"/>
		</g>
	</g>
	<g>
		<g>
			<path class="st2" d="M897.7,497.4v-81.4h19l33.6,55.4h-10l32.9-55.4h19l0.1,81.4h-21.2l-0.2-49.2h3.6L950,489.4h-10.2l-25.2-41.2
				h4.4v49.2H897.7z"/>
		</g>
	</g>
	<g>
		<g>
			<path class="st1" d="M769.4,693.6V566h60.3c14,0,26.3,2.6,37,7.8c10.7,5.2,19,12.6,25.1,22.1c6,9.5,9,20.7,9,33.7
				c0,13.1-3,24.5-9,34c-6,9.5-14.4,16.9-25.1,22.1c-10.7,5.2-23,7.8-37,7.8H769.4z M805.5,664.8h22.4c7.4,0,13.8-1.4,19.2-4.2
				c5.4-2.8,9.6-6.8,12.7-12.1c3-5.3,4.6-11.5,4.6-18.7c0-7.4-1.5-13.7-4.6-18.9c-3-5.2-7.3-9.1-12.7-11.9
				c-5.4-2.8-11.8-4.2-19.2-4.2h-22.4V664.8z"/>
			<path class="st1" d="M947.3,665.6h66.7v28.1H911.7V566h99.9v28.1h-64.3V665.6z M944.7,615.4h59.2v26.8h-59.2V615.4z"/>
			<path class="st1" d="M1070.7,696.2c-10.6,0-20.7-1.3-30.4-3.9c-9.7-2.6-17.5-5.9-23.4-9.9l11.8-26.8c5.7,3.6,12.3,6.7,19.8,9
				c7.5,2.4,14.9,3.6,22.3,3.6c5.1,0,9.1-0.4,12.1-1.3c3-0.8,5.2-2.1,6.6-3.6c1.4-1.6,2.1-3.5,2.1-5.7c0-2.8-1.3-5-4-6.7
				c-2.7-1.6-6.2-3-10.5-4.2c-4.3-1.2-9-2.2-14-3.3c-5-1-10.2-2.4-15.4-4.1c-5.2-1.7-10-3.9-14.2-6.7c-4.3-2.8-7.7-6.4-10.3-10.9
				c-2.6-4.5-3.9-10.1-3.9-17c0-7.5,2.1-14.4,6.2-20.6c4.1-6.2,10.4-11.2,18.8-14.9c8.4-3.8,18.8-5.7,31.4-5.7
				c8.4,0,16.6,0.9,24.7,2.8c8.1,1.9,15.2,4.7,21.4,8.5l-10.9,26.6c-6.1-3.4-12.1-5.9-18-7.5c-6-1.6-11.7-2.4-17.3-2.4
				c-5,0-9,0.5-12,1.6c-3,1.1-5.2,2.5-6.6,4.2c-1.3,1.7-2,3.5-2,5.5c0,2.9,1.3,5.2,4,6.8c2.7,1.6,6.1,3,10.4,4c4.3,1,9,2.1,14.1,3.2
				c5.2,1.1,10.3,2.5,15.4,4.1c5.1,1.6,9.8,3.8,14.1,6.6c4.3,2.7,7.8,6.3,10.5,10.8c2.7,4.4,4,10,4,16.7c0,7.4-2.1,14.2-6.3,20.5
				c-4.2,6.3-10.5,11.3-18.9,15C1093.8,694.3,1083.3,696.2,1070.7,696.2z"/>
			<path class="st1" d="M1135.8,693.6V566h36.1v127.6H1135.8z"/>
			<path class="st1" d="M1253,696.2c-10.2,0-19.6-1.6-28.1-4.8c-8.5-3.2-15.9-7.8-22.2-13.7c-6.3-5.9-11.2-12.9-14.8-21.1
				c-3.5-8.1-5.3-17.1-5.3-26.8c0-9.7,1.8-18.7,5.3-26.8c3.5-8.1,8.5-15.2,14.9-21.1c6.4-5.9,13.9-10.5,22.5-13.7
				c8.6-3.2,18.2-4.8,28.6-4.8c11.9,0,22.6,2,32.1,6c9.5,4,17.3,9.8,23.5,17.3l-23,20.8c-4.4-4.9-9.1-8.4-14.1-10.8
				c-5-2.3-10.7-3.5-16.9-3.5c-5.5,0-10.5,0.9-14.9,2.6c-4.5,1.7-8.3,4.2-11.5,7.4c-3.2,3.2-5.6,7.1-7.4,11.6
				c-1.8,4.5-2.6,9.5-2.6,14.9c0,5.3,0.9,10.3,2.6,14.8c1.8,4.5,4.2,8.4,7.4,11.6c3.2,3.2,7,5.7,11.4,7.5c4.4,1.8,9.3,2.6,14.7,2.6
				c5.3,0,10.6-0.9,15.7-2.6c5.1-1.8,10.3-4.8,15.5-9l20.2,25.3c-7.4,5.2-15.9,9.2-25.4,12C1271.6,694.8,1262.2,696.2,1253,696.2z
				 M1274.5,675.4v-48.3h32.1V680L1274.5,675.4z"/>
			<path class="st1" d="M1321.5,693.6V566h29.7l70.2,84.9h-14V566h35.4v127.6H1413l-70.4-84.9h14v84.9H1321.5z"/>
			<path class="st1" d="M805.5,799.6c-6.2,0-11.9-1-17.2-3.1c-5.2-2.1-9.8-5-13.6-8.7c-3.8-3.7-6.8-8.1-9-13.2
				c-2.1-5-3.2-10.6-3.2-16.6c0-6,1.1-11.5,3.2-16.6c2.1-5,5.1-9.4,9-13.2c3.9-3.7,8.5-6.6,13.7-8.7c5.2-2.1,11-3.1,17.2-3.1
				c6.2,0,11.9,1,17.1,2.9c5.2,1.9,9.6,4.9,13.2,8.9l-5.4,5.5c-3.4-3.4-7.2-5.9-11.3-7.3c-4.1-1.5-8.5-2.2-13.3-2.2
				c-5.1,0-9.7,0.8-13.9,2.5c-4.2,1.7-7.9,4-11.1,7.1c-3.1,3.1-5.6,6.6-7.3,10.7c-1.7,4.1-2.6,8.6-2.6,13.5c0,4.8,0.9,9.3,2.6,13.4
				c1.7,4.1,4.2,7.7,7.3,10.8c3.1,3.1,6.8,5.4,11.1,7.1c4.2,1.7,8.8,2.5,13.8,2.5c4.7,0,9.1-0.7,13.2-2.1c4.2-1.4,8-3.8,11.5-7.1
				l4.9,6.5c-3.9,3.4-8.4,6-13.6,7.8C816.6,798.7,811.2,799.6,805.5,799.6z M827.2,788.2v-30.1h8.3v31.1L827.2,788.2z"/>
			<path class="st1" d="M854.6,798.9v-81.6h30.5c6.9,0,12.9,1.1,17.8,3.3c5,2.2,8.8,5.4,11.5,9.6c2.7,4.2,4,9.2,4,15.1
				c0,5.8-1.3,10.7-4,14.9c-2.7,4.2-6.5,7.3-11.5,9.6c-5,2.2-10.9,3.3-17.8,3.3h-25.8l3.8-4v29.8H854.6z M863.2,769.8l-3.8-4.1h25.5
				c8.2,0,14.4-1.8,18.6-5.4c4.2-3.6,6.4-8.6,6.4-15c0-6.5-2.1-11.6-6.4-15.2c-4.2-3.6-10.4-5.4-18.6-5.4h-25.5l3.8-4.1V769.8z
				 M910.3,798.9l-21-29.6h9.3l21.1,29.6H910.3z"/>
			<path class="st1" d="M969.3,799.6c-6.1,0-11.8-1-17.1-3.1c-5.2-2.1-9.8-5-13.6-8.7c-3.8-3.8-6.8-8.2-9-13.2
				c-2.1-5-3.2-10.5-3.2-16.5c0-6,1.1-11.5,3.2-16.5c2.1-5,5.1-9.4,9-13.2c3.8-3.8,8.4-6.7,13.6-8.7c5.2-2.1,10.9-3.1,17.1-3.1
				c6.1,0,11.8,1,17,3.1c5.2,2.1,9.7,5,13.6,8.7c3.8,3.7,6.8,8.1,9,13.2c2.1,5.1,3.2,10.6,3.2,16.6c0,6-1.1,11.5-3.2,16.6
				c-2.1,5.1-5.1,9.4-9,13.2c-3.8,3.7-8.4,6.6-13.6,8.7C981.1,798.6,975.4,799.6,969.3,799.6z M969.3,791.9c4.9,0,9.4-0.8,13.6-2.5
				c4.2-1.7,7.8-4,10.8-7.1c3.1-3.1,5.5-6.6,7.2-10.7c1.7-4.1,2.6-8.6,2.6-13.5s-0.9-9.4-2.6-13.5c-1.7-4.1-4.1-7.7-7.2-10.7
				c-3.1-3.1-6.7-5.4-10.8-7.1c-4.2-1.7-8.7-2.5-13.6-2.5s-9.4,0.8-13.6,2.5c-4.2,1.7-7.8,4-11,7.1c-3.1,3.1-5.5,6.6-7.2,10.7
				c-1.7,4.1-2.6,8.6-2.6,13.5c0,4.8,0.9,9.3,2.6,13.4c1.7,4.1,4.1,7.7,7.2,10.8c3.1,3.1,6.8,5.4,11,7.1
				C959.8,791.1,964.4,791.9,969.3,791.9z"/>
			<path class="st1" d="M1059,799.6c-10.4,0-18.6-3-24.6-9c-6-6-9-14.8-9-26.6v-46.7h8.6v46.4c0,9.6,2.2,16.7,6.5,21.3
				c4.4,4.6,10.5,6.9,18.4,6.9c8,0,14.2-2.3,18.5-6.9c4.4-4.6,6.5-11.7,6.5-21.3v-46.4h8.4v46.7c0,11.7-3,20.6-8.9,26.6
				C1077.6,796.6,1069.4,799.6,1059,799.6z"/>
			<path class="st1" d="M1113.2,798.9v-81.6h30.5c6.9,0,12.9,1.1,17.8,3.3c5,2.2,8.8,5.4,11.5,9.6c2.7,4.2,4,9.2,4,15.1
				c0,5.8-1.3,10.7-4,14.9c-2.7,4.2-6.5,7.4-11.5,9.6c-5,2.3-10.9,3.4-17.8,3.4H1118l3.8-4.1v29.8H1113.2z M1121.8,769.8l-3.8-4.2
				h25.5c8.2,0,14.4-1.8,18.6-5.3c4.2-3.5,6.4-8.5,6.4-15c0-6.5-2.1-11.6-6.4-15.2c-4.2-3.6-10.4-5.4-18.6-5.4H1118l3.8-4.1V769.8z"
				/>
			<path class="st1" d="M1217,798.9v-81.6h8.6v74.1h45.7v7.5H1217z"/>
			<path class="st1" d="M1296.2,798.9v-74.1h-28.7v-7.5h66v7.5h-28.7v74.1H1296.2z"/>
			<path class="st1" d="M1342,798.9v-81.6h33.2c8.7,0,16.3,1.7,22.9,5.2c6.6,3.5,11.7,8.3,15.3,14.4c3.7,6.1,5.5,13.2,5.5,21.2
				c0,8-1.8,15.1-5.5,21.2c-3.7,6.1-8.8,10.9-15.3,14.4c-6.6,3.5-14.2,5.2-22.9,5.2H1342z M1350.7,791.5h24.1
				c7.2,0,13.5-1.4,18.8-4.3c5.3-2.8,9.5-6.8,12.4-11.8c3-5,4.4-10.8,4.4-17.3c0-6.6-1.5-12.4-4.4-17.4c-3-5-7.1-8.9-12.4-11.7
				c-5.3-2.8-11.6-4.3-18.8-4.3h-24.1V791.5z"/>
			<path class="st1" d="M1432.1,799.5c-1.7,0-3.2-0.6-4.4-1.9c-1.2-1.2-1.8-2.8-1.8-4.5c0-1.9,0.6-3.4,1.8-4.5
				c1.2-1.2,2.7-1.7,4.4-1.7c1.7,0,3.2,0.6,4.4,1.7c1.2,1.2,1.8,2.7,1.8,4.5c0,1.8-0.6,3.3-1.8,4.5
				C1435.3,798.9,1433.8,799.5,1432.1,799.5z"/>
		</g>
	</g>
</g>
</svg>
