<?xml version="1.0" encoding="utf-8"?>
<!-- Generator: Adobe Illustrator 28.2.0, SVG Export Plug-In . SVG Version: 6.00 Build 0)  -->
<svg version="1.1" id="Layer_2_00000041280510272141170210000014625757632707235772_"
	 xmlns="http://www.w3.org/2000/svg" xmlns:xlink="http://www.w3.org/1999/xlink" x="0px" y="0px" viewBox="0 0 1493.8 839.9"
	 style="enable-background:new 0 0 1493.8 839.9;" xml:space="preserve">
<style type="text/css">
	.st0{fill:#39B24A;}
	.st1{fill:#FFFFFF;}
	.st2{fill:#1F0500;}
</style>
<g>
	<g>
		<polygon class="st0" points="954.1,486 852.1,486 703.3,293 766.5,242.7 		"/>
		<polygon class="st0" points="968,92.4 765.8,344.1 703.6,292.5 864.4,92.4 		"/>
	</g>
	<rect x="577.2" y="92.6" class="st1" width="104.9" height="104.9"/>
	<rect x="577.2" y="236.8" class="st1" width="104.9" height="104.9"/>
	<rect x="577.2" y="380.9" class="st1" width="104.9" height="104.9"/>
	<g>
		<g>
			<path class="st2" d="M597,182.8v-69.6h19.4v69.6H597z M614.5,167.4l-1.1-22.1l29.9-32.1h21.6l-29.6,32.3l-11,11.4L614.5,167.4z
				 M643.6,182.8L621,154.1l12.8-13.7l32.7,42.4H643.6z"/>
		</g>
	</g>
	<g>
		<g>
			<path class="st2" d="M594.9,325.5v-69.6h16.2l38.3,46.3h-7.7v-46.3H661v69.6h-16.2l-38.4-46.3h7.7v46.3H594.9z"/>
		</g>
	</g>
	<g>
		<g>
			<path class="st2" d="M589.2,469.8v-69.6h16.2l28.7,47.3h-8.5l28.1-47.3h16.2l0.1,69.6h-18.1l-0.2-42h3.1l-21,35.2h-8.7
				l-21.6-35.2h3.8v42H589.2z"/>
		</g>
	</g>
	<g>
		<g>
			<path class="st1" d="M479.5,637.5v-109h51.6c11.9,0,22.5,2.2,31.6,6.7c9.1,4.5,16.3,10.7,21.4,18.8s7.7,17.7,7.7,28.8
				c0,11.2-2.6,20.9-7.7,29c-5.1,8.2-12.3,14.5-21.4,18.9c-9.1,4.5-19.7,6.7-31.6,6.7H479.5z M510.4,612.9h19.2
				c6.3,0,11.8-1.2,16.4-3.6c4.6-2.4,8.2-5.8,10.8-10.4c2.6-4.5,3.9-9.8,3.9-16c0-6.3-1.3-11.7-3.9-16.1c-2.6-4.4-6.2-7.8-10.8-10.2
				c-4.6-2.4-10.1-3.6-16.4-3.6h-19.2V612.9z"/>
			<path class="st1" d="M631.5,613.6h57v24h-87.4v-109h85.4v24h-55V613.6z M629.4,570.7H680v22.9h-50.6V570.7z"/>
			<path class="st1" d="M737,639.7c-9,0-17.7-1.1-25.9-3.3c-8.3-2.2-14.9-5.1-20-8.5l10.1-22.9c4.9,3.1,10.5,5.7,16.9,7.7
				c6.4,2,12.7,3,19.1,3c4.4,0,7.8-0.4,10.4-1.1c2.5-0.7,4.4-1.8,5.6-3.1c1.2-1.3,1.8-3,1.8-4.8c0-2.4-1.1-4.3-3.4-5.7
				c-2.3-1.4-5.3-2.6-9-3.6c-3.7-1-7.7-1.9-12-2.8c-4.3-0.9-8.7-2-13.2-3.5c-4.5-1.5-8.5-3.4-12.1-5.8c-3.6-2.4-6.6-5.5-8.8-9.3
				c-2.2-3.8-3.3-8.7-3.3-14.5c0-6.4,1.8-12.3,5.3-17.6c3.5-5.3,8.9-9.6,16-12.8c7.2-3.2,16.1-4.8,26.8-4.8c7.2,0,14.2,0.8,21.1,2.4
				c6.9,1.6,13,4,18.3,7.2l-9.3,22.7c-5.2-2.9-10.3-5-15.4-6.4c-5.1-1.3-10-2-14.8-2c-4.3,0-7.7,0.5-10.3,1.4
				c-2.6,0.9-4.5,2.1-5.6,3.6c-1.1,1.5-1.7,3-1.7,4.7c0,2.5,1.1,4.4,3.4,5.8c2.3,1.4,5.2,2.5,8.9,3.4c3.6,0.9,7.7,1.8,12.1,2.7
				c4.4,0.9,8.8,2.1,13.2,3.5c4.4,1.4,8.4,3.3,12.1,5.6c3.7,2.3,6.7,5.4,9,9.2c2.3,3.8,3.4,8.5,3.4,14.3c0,6.3-1.8,12.2-5.4,17.5
				c-3.6,5.3-9,9.6-16.1,12.9C756.8,638.1,747.8,639.7,737,639.7z"/>
			<path class="st1" d="M792.6,637.5v-109h30.8v109H792.6z"/>
			<path class="st1" d="M892.8,639.7c-8.7,0-16.7-1.4-24-4.1c-7.3-2.8-13.6-6.6-19-11.7c-5.4-5-9.6-11-12.6-18
				c-3-7-4.5-14.6-4.5-22.9c0-8.3,1.5-15.9,4.5-22.9c3-7,7.2-13,12.7-18c5.5-5,11.9-8.9,19.2-11.7c7.4-2.8,15.5-4.1,24.5-4.1
				c10.2,0,19.3,1.7,27.4,5.1s14.8,8.4,20.1,14.8L921.4,564c-3.7-4.2-7.8-7.2-12.1-9.2c-4.3-2-9.1-3-14.4-3c-4.7,0-8.9,0.7-12.8,2.2
				c-3.8,1.5-7.1,3.6-9.8,6.3c-2.7,2.8-4.8,6.1-6.3,9.9c-1.5,3.8-2.3,8.1-2.3,12.8c0,4.6,0.8,8.8,2.3,12.6c1.5,3.8,3.6,7.1,6.3,9.9
				c2.7,2.8,5.9,4.9,9.7,6.4c3.8,1.5,8,2.3,12.5,2.3c4.6,0,9-0.8,13.4-2.3c4.4-1.5,8.8-4.1,13.2-7.7l17.3,21.7
				c-6.3,4.5-13.6,7.9-21.7,10.3C908.7,638.5,900.6,639.7,892.8,639.7z M911.1,622v-41.3h27.4v45.2L911.1,622z"/>
			<path class="st1" d="M951.3,637.5v-109h25.4l60,72.6h-12v-72.6h30.2v109h-25.4L969.4,565h12v72.6H951.3z"/>
			<path class="st1" d="M510.4,728.1c-5.3,0-10.2-0.9-14.7-2.6c-4.5-1.8-8.4-4.2-11.7-7.4c-3.3-3.2-5.8-6.9-7.7-11.3
				c-1.8-4.3-2.7-9-2.7-14.1c0-5.1,0.9-9.8,2.7-14.1c1.8-4.3,4.4-8.1,7.7-11.3c3.3-3.2,7.2-5.7,11.7-7.4c4.5-1.8,9.4-2.6,14.7-2.6
				c5.3,0,10.2,0.8,14.6,2.5c4.4,1.7,8.2,4.2,11.3,7.6l-4.6,4.7c-2.9-2.9-6.1-5-9.7-6.3c-3.5-1.3-7.3-1.9-11.4-1.9
				c-4.3,0-8.3,0.7-11.9,2.1c-3.6,1.4-6.8,3.5-9.5,6.1c-2.7,2.6-4.8,5.7-6.3,9.2s-2.2,7.3-2.2,11.5c0,4.1,0.7,7.9,2.2,11.5
				s3.6,6.6,6.3,9.2c2.7,2.6,5.8,4.6,9.5,6.1c3.6,1.4,7.6,2.1,11.8,2.1c4,0,7.8-0.6,11.3-1.8c3.6-1.2,6.8-3.2,9.8-6.1l4.2,5.6
				c-3.3,2.9-7.2,5.1-11.7,6.6C519.9,727.3,515.2,728.1,510.4,728.1z M528.9,718.3v-25.7h7.1v26.6L528.9,718.3z"/>
			<path class="st1" d="M552.3,727.5v-69.7h26.1c5.9,0,11,0.9,15.2,2.8c4.2,1.9,7.5,4.6,9.8,8.2c2.3,3.6,3.4,7.9,3.4,12.9
				c0,4.9-1.1,9.1-3.4,12.7c-2.3,3.6-5.6,6.3-9.8,8.2c-4.2,1.9-9.3,2.8-15.2,2.8h-22l3.3-3.4v25.5H552.3z M559.7,702.6l-3.3-3.5
				h21.8c7,0,12.3-1.5,15.9-4.6c3.6-3.1,5.4-7.3,5.4-12.8c0-5.6-1.8-9.9-5.4-12.9c-3.6-3.1-8.9-4.6-15.9-4.6h-21.8l3.3-3.5V702.6z
				 M599.9,727.5L582,702.2h8l18,25.3H599.9z"/>
			<path class="st1" d="M650.3,728.1c-5.2,0-10.1-0.9-14.6-2.6c-4.5-1.8-8.4-4.2-11.7-7.5c-3.3-3.2-5.8-7-7.7-11.3
				c-1.8-4.3-2.7-9-2.7-14.1c0-5.1,0.9-9.8,2.7-14.1c1.8-4.3,4.4-8,7.7-11.3c3.3-3.2,7.2-5.7,11.6-7.5c4.4-1.8,9.3-2.6,14.6-2.6
				c5.2,0,10.1,0.9,14.5,2.6c4.4,1.8,8.3,4.2,11.6,7.4c3.3,3.2,5.8,6.9,7.7,11.3c1.8,4.3,2.7,9,2.7,14.1c0,5.1-0.9,9.8-2.7,14.1
				c-1.8,4.3-4.4,8.1-7.7,11.3c-3.3,3.2-7.2,5.7-11.6,7.4C660.4,727.2,655.6,728.1,650.3,728.1z M650.3,721.5
				c4.2,0,8.1-0.7,11.6-2.1c3.6-1.4,6.6-3.5,9.3-6.1c2.6-2.6,4.7-5.7,6.1-9.2c1.5-3.5,2.2-7.3,2.2-11.5c0-4.2-0.7-8-2.2-11.5
				c-1.5-3.5-3.5-6.5-6.1-9.2c-2.6-2.6-5.7-4.6-9.3-6.1c-3.6-1.4-7.4-2.1-11.6-2.1s-8.1,0.7-11.7,2.1c-3.6,1.4-6.7,3.5-9.4,6.1
				c-2.7,2.6-4.7,5.7-6.2,9.2c-1.5,3.5-2.2,7.3-2.2,11.5c0,4.1,0.7,7.9,2.2,11.5c1.5,3.5,3.5,6.6,6.2,9.2c2.7,2.6,5.8,4.6,9.4,6.1
				C642.3,720.8,646.2,721.5,650.3,721.5z"/>
			<path class="st1" d="M727,728.1c-8.9,0-15.9-2.6-21-7.7c-5.1-5.1-7.7-12.7-7.7-22.7v-39.9h7.4v39.6c0,8.2,1.9,14.3,5.6,18.2
				c3.7,3.9,9,5.9,15.7,5.9c6.8,0,12.1-2,15.8-5.9c3.7-3.9,5.6-10,5.6-18.2v-39.6h7.2v39.9c0,10-2.5,17.6-7.6,22.7
				C742.9,725.5,735.9,728.1,727,728.1z"/>
			<path class="st1" d="M773.3,727.5v-69.7h26.1c5.9,0,11,0.9,15.2,2.8c4.2,1.9,7.5,4.6,9.8,8.2c2.3,3.6,3.4,7.9,3.4,12.9
				c0,4.9-1.1,9.1-3.4,12.7c-2.3,3.6-5.6,6.3-9.8,8.2c-4.2,1.9-9.3,2.9-15.2,2.9h-22l3.3-3.5v25.5H773.3z M780.7,702.6l-3.3-3.6
				h21.8c7,0,12.3-1.5,15.9-4.5s5.4-7.3,5.4-12.8c0-5.6-1.8-9.9-5.4-12.9c-3.6-3.1-8.9-4.6-15.9-4.6h-21.8l3.3-3.5V702.6z"/>
			<path class="st1" d="M862,727.5v-69.7h7.4v63.3h39v6.4H862z"/>
			<path class="st1" d="M929.7,727.5v-63.3h-24.5v-6.4h56.4v6.4h-24.5v63.3H929.7z"/>
			<path class="st1" d="M968.8,727.5v-69.7h28.4c7.4,0,14,1.5,19.6,4.4c5.6,3,10,7.1,13.1,12.3c3.1,5.2,4.7,11.3,4.7,18.1
				c0,6.8-1.6,12.9-4.7,18.1c-3.1,5.2-7.5,9.3-13.1,12.3c-5.6,3-12.1,4.4-19.6,4.4H968.8z M976.2,721.1h20.6
				c6.2,0,11.5-1.2,16.1-3.6c4.5-2.4,8.1-5.8,10.6-10.1c2.5-4.3,3.8-9.2,3.8-14.8c0-5.6-1.3-10.6-3.8-14.8c-2.5-4.2-6.1-7.6-10.6-10
				c-4.5-2.4-9.9-3.6-16.1-3.6h-20.6V721.1z"/>
			<path class="st1" d="M1045.8,728c-1.5,0-2.7-0.5-3.7-1.6c-1-1.1-1.5-2.4-1.5-3.9c0-1.6,0.5-2.9,1.5-3.9c1-1,2.3-1.5,3.7-1.5
				s2.7,0.5,3.7,1.5s1.5,2.3,1.5,3.9c0,1.5-0.5,2.8-1.5,3.9C1048.5,727.5,1047.3,728,1045.8,728z"/>
		</g>
	</g>
</g>
</svg>
